<?xml version="1.0" standalone="no"?><svg xmlns="http://www.w3.org/2000/svg" viewBox="0 0 1440 320"><path fill="#3A3845" fill-opacity="1" d="M0,32L11.4,53.3C22.9,75,46,117,69,160C91.4,203,114,245,137,266.7C160,288,183,288,206,256C228.6,224,251,160,274,154.7C297.1,149,320,203,343,197.3C365.7,192,389,128,411,122.7C434.3,117,457,171,480,197.3C502.9,224,526,224,549,202.7C571.4,181,594,139,617,112C640,85,663,75,686,74.7C708.6,75,731,85,754,90.7C777.1,96,800,96,823,90.7C845.7,85,869,75,891,74.7C914.3,75,937,85,960,90.7C982.9,96,1006,96,1029,128C1051.4,160,1074,224,1097,218.7C1120,213,1143,139,1166,96C1188.6,53,1211,43,1234,53.3C1257.1,64,1280,96,1303,90.7C1325.7,85,1349,43,1371,69.3C1394.3,96,1417,192,1429,240L1440,288L1440,0L1428.6,0C1417.1,0,1394,0,1371,0C1348.6,0,1326,0,1303,0C1280,0,1257,0,1234,0C1211.4,0,1189,0,1166,0C1142.9,0,1120,0,1097,0C1074.3,0,1051,0,1029,0C1005.7,0,983,0,960,0C937.1,0,914,0,891,0C868.6,0,846,0,823,0C800,0,777,0,754,0C731.4,0,709,0,686,0C662.9,0,640,0,617,0C594.3,0,571,0,549,0C525.7,0,503,0,480,0C457.1,0,434,0,411,0C388.6,0,366,0,343,0C320,0,297,0,274,0C251.4,0,229,0,206,0C182.9,0,160,0,137,0C114.3,0,91,0,69,0C45.7,0,23,0,11,0L0,0Z"></path></svg>