<?xml version="1.0" standalone="no"?><svg xmlns="http://www.w3.org/2000/svg" viewBox="0 0 1440 320"><path fill="#3A3845" fill-opacity="1" d="M0,96L18.5,101.3C36.9,107,74,117,111,138.7C147.7,160,185,192,222,181.3C258.5,171,295,117,332,96C369.2,75,406,85,443,117.3C480,149,517,203,554,218.7C590.8,235,628,213,665,181.3C701.5,149,738,107,775,80C812.3,53,849,43,886,58.7C923.1,75,960,117,997,160C1033.8,203,1071,245,1108,234.7C1144.6,224,1182,160,1218,128C1255.4,96,1292,96,1329,106.7C1366.2,117,1403,139,1422,149.3L1440,160L1440,0L1421.5,0C1403.1,0,1366,0,1329,0C1292.3,0,1255,0,1218,0C1181.5,0,1145,0,1108,0C1070.8,0,1034,0,997,0C960,0,923,0,886,0C849.2,0,812,0,775,0C738.5,0,702,0,665,0C627.7,0,591,0,554,0C516.9,0,480,0,443,0C406.2,0,369,0,332,0C295.4,0,258,0,222,0C184.6,0,148,0,111,0C73.8,0,37,0,18,0L0,0Z"></path></svg>